<?xml version="1.0" encoding="UTF-8"?>
<!DOCTYPE svg PUBLIC "-//W3C//DTD SVG 1.1//EN" "http://www.w3.org/Graphics/SVG/1.1/DTD/svg11.dtd">
<svg xmlns="http://www.w3.org/2000/svg" version="1.1" width="1024px" height="1024px" style="shape-rendering:geometricPrecision; text-rendering:geometricPrecision; image-rendering:optimizeQuality; fill-rule:evenodd; clip-rule:evenodd" xmlns:xlink="http://www.w3.org/1999/xlink">
<g><path style="opacity:1" fill="#fafafa" d="M -0.5,-0.5 C 340.833,-0.5 682.167,-0.5 1023.5,-0.5C 1023.5,340.833 1023.5,682.167 1023.5,1023.5C 682.167,1023.5 340.833,1023.5 -0.5,1023.5C -0.5,682.167 -0.5,340.833 -0.5,-0.5 Z"/></g>
<g><path style="opacity:1" fill="#fe9e05" d="M 406.5,209.5 C 424.302,207.982 437.469,214.982 446,230.5C 458.921,255.786 460.588,281.786 451,308.5C 441.016,330.943 424.182,338.777 400.5,332C 389.622,326.102 382.122,317.269 378,305.5C 367.409,277.156 370.076,250.156 386,224.5C 389.167,221.333 392.333,218.167 395.5,215C 399.192,213.058 402.858,211.224 406.5,209.5 Z"/></g>
<g><path style="opacity:1" fill="#fe9e04" d="M 329.5,235.5 C 347.862,266.019 350.196,297.352 336.5,329.5C 323.638,344.045 308.305,347.212 290.5,339C 279.977,331.133 272.477,320.966 268,308.5C 261.923,289.102 260.923,269.435 265,249.5C 268.033,234.901 276.2,224.401 289.5,218C 307.139,214.326 320.473,220.159 329.5,235.5 Z"/></g>
<g><path style="opacity:1" fill="#fe9115" d="M 329.5,235.5 C 333.641,239.759 336.808,244.759 339,250.5C 347.759,273.173 348.759,296.173 342,319.5C 340.408,323.021 338.575,326.354 336.5,329.5C 350.196,297.352 347.862,266.019 329.5,235.5 Z"/></g>
<g><path style="opacity:1" fill="#fe9d04" d="M 499.5,281.5 C 517.805,282.306 528.972,291.639 533,309.5C 535.539,339.558 525.705,364.725 503.5,385C 481.235,397.687 464.735,392.521 454,369.5C 449.824,343.204 455.824,319.537 472,298.5C 479.297,289.611 488.463,283.945 499.5,281.5 Z"/></g>
<g><path style="opacity:1" fill="#fe9d04" d="M 216.5,303.5 C 227.478,302.244 237.478,304.744 246.5,311C 269.71,329.587 281.543,353.754 282,383.5C 278.089,404.403 265.589,413.236 244.5,410C 233.791,406.564 224.625,400.731 217,392.5C 204.776,378.382 197.109,362.048 194,343.5C 190.475,323.611 197.975,310.278 216.5,303.5 Z"/></g>
<g><path style="opacity:1" fill="#fe9e03" d="M 364.5,345.5 C 385.668,344.942 404.002,351.776 419.5,366C 427.825,375.99 436.491,385.657 445.5,395C 457.829,403.5 470.496,411.5 483.5,419C 507.255,440.24 513.755,465.74 503,495.5C 491.844,513.586 475.511,522.92 454,523.5C 449.18,522.88 444.347,522.38 439.5,522C 426.267,518.256 412.934,514.922 399.5,512C 388.655,509.751 377.988,510.418 367.5,514C 353.951,520.275 340.284,526.275 326.5,532C 298.532,541.623 275.366,535.123 257,512.5C 245.418,491.742 245.752,471.075 258,450.5C 262.95,443.216 268.283,436.216 274,429.5C 281.698,422.136 289.031,414.47 296,406.5C 301.919,396.998 307.586,387.331 313,377.5C 325.708,359.567 342.875,348.9 364.5,345.5 Z"/></g>
<g><path style="opacity:1" fill="#fe9e04" d="M 567.5,514.5 C 585.707,512.854 598.207,520.52 605,537.5C 616.471,573.127 607.971,602.96 579.5,627C 566.505,634.858 553.171,635.525 539.5,629C 529.128,621.43 522.962,611.263 521,598.5C 517.772,567.484 527.938,541.984 551.5,522C 556.542,518.643 561.876,516.143 567.5,514.5 Z"/></g>
<g><path style="opacity:1" fill="#fe9e04" d="M 682.5,542.5 C 697.038,542.544 707.205,549.21 713,562.5C 720.459,597.165 711.292,626.665 685.5,651C 666.767,667.732 648.267,667.566 630,650.5C 620.632,635.052 618.965,618.719 625,601.5C 632.142,576.706 646.975,558.206 669.5,546C 673.86,544.417 678.194,543.25 682.5,542.5 Z"/></g>
<g><path style="opacity:1" fill="#fe9e05" d="M 464.5,560.5 C 476.265,560.465 485.765,565.132 493,574.5C 504.465,592.484 508.799,612.15 506,633.5C 505.411,650.869 497.244,663.035 481.5,670C 466.733,672.043 454.566,667.21 445,655.5C 427.483,629.265 426.149,602.265 441,574.5C 447.601,567.622 455.434,562.955 464.5,560.5 Z"/></g>
<g><path style="opacity:1" fill="#fe9e04" d="M 722.5,644.5 C 742.222,641.268 755.388,648.934 762,667.5C 763.161,676.424 762.161,685.091 759,693.5C 747.706,718.795 728.873,735.628 702.5,744C 678.892,746.395 666.225,735.728 664.5,712C 670.893,678.38 690.227,655.88 722.5,644.5 Z"/></g>
<g><path style="opacity:1" fill="#fe9e03" d="M 570.5,646.5 C 602.78,648.61 624.28,664.943 635,695.5C 638.213,719.159 646.88,740.492 661,759.5C 672.708,779.425 674.375,800.092 666,821.5C 651.757,844.123 631.423,853.79 605,850.5C 594.913,848.209 585.413,844.376 576.5,839C 566.215,831.716 556.215,824.05 546.5,816C 536.459,809.542 525.459,805.875 513.5,805C 502.5,804.667 491.5,804.333 480.5,804C 454.587,801.725 437.087,788.558 428,764.5C 424.513,748.784 427.513,734.45 437,721.5C 448.826,705.156 464.66,694.656 484.5,690C 500.166,683.506 514.166,674.506 526.5,663C 539.775,653.525 554.442,648.025 570.5,646.5 Z"/></g>
</svg>
