<?xml version="1.0" encoding="UTF-8"?>
<svg version="1.1" xmlns="http://www.w3.org/2000/svg" width="1024" height="1024">
<path d="M0 0 C18.19848755 -0.70584353 37.17291142 5.42324188 51.75390625 16.16015625 C53.12289062 17.16175781 53.12289062 17.16175781 54.51953125 18.18359375 C72.62045221 32.18905494 84.77222884 53.03589459 88.24609375 75.671875 C91.41380909 100.58265412 87.21291288 127.78506706 71.75390625 148.16015625 C56.35687028 166.7313504 37.66620641 178.28114609 13.5390625 180.8125 C-7.53144817 182.74776878 -27.91547409 177.37693585 -44.45849609 164.02441406 C-45.35595551 163.30151184 -46.25341492 162.57860962 -47.17807007 161.83380127 C-47.86051788 161.28149841 -48.5429657 160.72919556 -49.24609375 160.16015625 C-49.24387314 161.18523788 -49.24165253 162.21031952 -49.23936462 163.26646423 C-49.21913334 172.90522585 -49.20412168 182.54398319 -49.19428158 192.18276119 C-49.18905272 197.13869547 -49.18195501 202.09461267 -49.1706543 207.05053711 C-49.15982553 211.82914461 -49.15381694 216.60773563 -49.15121651 221.38635445 C-49.14936224 223.21369244 -49.14574159 225.04102949 -49.14036369 226.86836052 C-49.13315339 229.41868954 -49.1321028 231.96894962 -49.13256836 234.51928711 C-49.12897308 235.28245239 -49.12537781 236.04561768 -49.12167358 236.83190918 C-49.13204159 242.04610409 -49.13204159 242.04610409 -50.24609375 243.16015625 C-65.09609375 243.49015625 -79.94609375 243.82015625 -95.24609375 244.16015625 C-95.24609375 164.30015625 -95.24609375 84.44015625 -95.24609375 2.16015625 C-80.72609375 2.16015625 -66.20609375 2.16015625 -51.24609375 2.16015625 C-51.24609375 7.77015625 -51.24609375 13.38015625 -51.24609375 19.16015625 C-48.03974297 17.55698086 -45.6379681 16.02860855 -42.80859375 13.91015625 C-29.71366129 4.68024791 -15.72728096 1.12142351 0 0 Z M-38.24609375 56.16015625 C-47.6993502 68.60273815 -51.17640192 81.68321129 -50.24609375 97.16015625 C-48.20043958 112.02739087 -42.77741809 123.47360436 -30.9453125 133.015625 C-19.84316028 140.78137915 -7.54632399 142.29926688 5.75390625 141.16015625 C18.11964863 138.89945886 28.49025448 133.03331252 36.03125 122.921875 C42.09846572 113.19506885 43.9468718 104.3120547 44.00390625 93.09765625 C44.02453125 92.11087891 44.04515625 91.12410156 44.06640625 90.10742188 C44.14285086 75.51605671 39.24398516 64.14344331 29.35546875 53.52734375 C19.35038779 44.42362143 7.40333128 40.76535937 -5.90625 41.015625 C-18.15391385 41.77215849 -30.01338445 46.89613563 -38.24609375 56.16015625 Z " fill="#EC6C33" transform="translate(266.24609375,395.83984375)"/>
<path d="M0 0 C18.53468176 16.14576722 28.95338359 36.23100687 31.1875 60.6875 C31.40160084 64.64736513 31.48299413 68.59718816 31.5 72.5625 C31.50547852 73.50778564 31.51095703 74.45307129 31.51660156 75.42700195 C31.46752217 80.08912103 31.34286582 82.37676836 29.1875 86.6875 C-12.3925 86.6875 -53.9725 86.6875 -96.8125 86.6875 C-92.36161089 101.15288961 -88.32108479 111.70222436 -74.875 119 C-64.01089959 123.86795269 -49.46526202 124.6255237 -37.93359375 121.5234375 C-33.32027111 119.70529561 -29.09249658 117.16787597 -24.8125 114.6875 C-23.4850179 114.00925705 -22.15386367 113.33785814 -20.8125 112.6875 C-20.8125 112.0275 -20.8125 111.3675 -20.8125 110.6875 C-19.1902546 108.97756566 -17.51836575 107.31402316 -15.8125 105.6875 C-15.214375 105.089375 -14.61625 104.49125 -14 103.875 C-13.608125 103.483125 -13.21625 103.09125 -12.8125 102.6875 C0.41683034 107.74499047 13.05465924 114.4236296 25.1875 121.6875 C20.07511339 136.41541169 4.55892758 147.0913778 -8.83349609 153.77197266 C-33.77478115 165.31031696 -62.24072698 165.61574251 -87.95654297 156.38623047 C-108.2705875 148.73840155 -124.39476033 133.12792152 -133.8125 113.6875 C-137.21206401 105.70977749 -139.57055612 97.26690545 -140.8125 88.6875 C-140.93496094 87.92308594 -141.05742187 87.15867187 -141.18359375 86.37109375 C-144.25884242 62.11079868 -139.24084917 36.58969711 -124.8125 16.6875 C-124.15636719 15.77355469 -123.50023437 14.85960937 -122.82421875 13.91796875 C-108.37183147 -4.97317733 -87.30321031 -14.71687213 -64.15625 -17.8125 C-41.32591596 -20.56922401 -18.06215321 -14.19532605 0 0 Z M-87.05859375 33.34375 C-91.772277 39.64265857 -94.52358576 45.95401457 -95.8125 53.6875 C-68.4225 53.6875 -41.0325 53.6875 -12.8125 53.6875 C-14.4180225 42.44884253 -18.85146491 34.76698844 -27.8125 27.6875 C-46.44910901 15.95799001 -71.44210382 16.39056678 -87.05859375 33.34375 Z " fill="#C05228" transform="translate(515.8125,414.3125)"/>
<path d="M0 0 C2.31908575 3.66561461 2.24437971 6.80027936 2.23046875 11.07421875 C2.23001053 11.75748734 2.22955231 12.44075592 2.2290802 13.14472961 C2.226065 14.58958677 2.21820058 16.03444087 2.20581055 17.47924805 C2.18770549 19.66271842 2.18530012 21.84575967 2.18554688 24.02929688 C2.16709655 31.07883356 1.98113128 38.00649622 1 45 C2.45418335 44.75552124 2.45418335 44.75552124 3.93774414 44.50610352 C8.29975863 43.88592776 12.59721654 43.87378811 16.99609375 43.90234375 C17.82963882 43.9037587 18.6631839 43.90517365 19.52198792 43.90663147 C22.16052986 43.91218832 24.79898409 43.9247326 27.4375 43.9375 C29.23632689 43.94252058 31.03515513 43.94708251 32.83398438 43.95117188 C37.22268958 43.96214357 41.61132996 43.97937804 46 44 C47.53297297 47.06594594 47.12131455 50.27111853 47.09765625 53.6328125 C47.0962413 54.38464813 47.09482635 55.13648376 47.09336853 55.91110229 C47.08776465 58.3157751 47.07521157 60.72035527 47.0625 63.125 C47.0574855 64.75390491 47.0529225 66.38281127 47.04882812 68.01171875 C47.03779397 72.00784827 47.02052679 76.00390842 47 80 C43.535 80.99 43.535 80.99 40 82 C39.67 81.67 39.34 81.34 39 81 C36.19023482 80.83982834 33.40226404 80.74049466 30.58984375 80.68359375 C29.74780899 80.66281265 28.90577423 80.64203156 28.03822327 80.62062073 C25.33806821 80.55503188 22.63781283 80.49619724 19.9375 80.4375 C18.11131759 80.39432363 16.28514546 80.35070964 14.45898438 80.30664062 C9.97276008 80.19934106 5.4864345 80.09810034 1 80 C1.0729126 81.10005371 1.1458252 82.20010742 1.22094727 83.33349609 C1.84846842 93.65888835 2.07440302 103.9446721 2.02734375 114.2890625 C2.02183502 115.53492126 2.01632629 116.78078003 2.01065063 118.06439209 C1.98305418 123.23099238 1.94792337 128.39747673 1.90405273 133.56396484 C1.87377099 137.38900196 1.85607545 141.21394358 1.83984375 145.0390625 C1.82638412 146.19338776 1.8129245 147.34771301 1.79905701 148.53701782 C1.60834929 160.39056485 1.60834929 160.39056485 6.1875 170.9375 C11.73153323 175.00312437 16.42091899 176.36525577 23.24609375 176.51171875 C23.90207047 176.52966995 24.55804718 176.54762115 25.23390198 176.56611633 C27.30170512 176.61972153 29.36928438 176.65395093 31.4375 176.6875 C32.85094231 176.72071743 34.26435523 176.75521111 35.67773438 176.79101562 C39.11827446 176.87541619 42.55889366 176.94246279 46 177 C47.69439089 180.38878178 46.99513621 184.22807535 46.87890625 187.9453125 C46.84348976 189.27283035 46.84348976 189.27283035 46.80735779 190.62716675 C46.73065076 193.45993817 46.64665678 196.29244104 46.5625 199.125 C46.50928636 201.04295551 46.45654592 202.96092422 46.40429688 204.87890625 C46.27502609 209.58610827 46.1392187 214.29308212 46 219 C41.59329294 219.07559007 37.1869544 219.12926088 32.77978516 219.16479492 C31.28850717 219.17964702 29.79727089 219.19993422 28.30615234 219.22631836 C7.31866351 219.58768295 -11.42638335 215.65276565 -28 202 C-30.63466859 199.16580401 -32.85135948 196.21068283 -35 193 C-35.54269531 192.319375 -36.08539062 191.63875 -36.64453125 190.9375 C-38.42083391 188.39846219 -38.52938346 186.02539201 -39 183 C-39.66 182.67 -40.32 182.34 -41 182 C-43.48463673 170.33617923 -43.3213519 158.25210578 -43.37890625 146.38671875 C-43.3951281 144.55588433 -43.41231277 142.72505822 -43.43040466 140.89424133 C-43.47558441 136.12972855 -43.51066703 131.36520393 -43.54260254 126.60058594 C-43.59498725 118.93120661 -43.65964162 111.26194773 -43.73081779 103.59272194 C-43.75359489 100.92321017 -43.76988615 98.25371404 -43.78553772 95.58415222 C-43.79893718 93.95803645 -43.81255135 92.33192242 -43.82641602 90.70581055 C-43.82902939 89.9656218 -43.83164276 89.22543304 -43.83433533 88.46281433 C-43.86571515 85.37247477 -44.01494761 82.95515716 -45 80 C-53.91 80 -62.82 80 -72 80 C-72.84963762 75.75181188 -73.12883981 72.30918372 -73.1328125 68.01953125 C-73.13376923 67.36546799 -73.13472595 66.71140472 -73.13571167 66.03752136 C-73.13638889 64.66344099 -73.13456674 63.28935734 -73.13037109 61.9152832 C-73.12499025 59.80868417 -73.13034479 57.70229582 -73.13671875 55.59570312 C-73.13605839 54.25781203 -73.13477811 52.91992106 -73.1328125 51.58203125 C-73.13168457 50.36749268 -73.13055664 49.1529541 -73.12939453 47.90161133 C-73 45 -73 45 -72 43 C-70.62134766 43.23009766 -70.62134766 43.23009766 -69.21484375 43.46484375 C-64.02103206 44.20681685 -58.79959906 44.35441623 -53.5625 44.5625 C-50.076875 44.706875 -46.59125 44.85125 -43 45 C-43 30.81 -43 16.62 -43 2 C-38.70826421 1.14165284 -35.30694811 0.89658834 -30.9765625 0.9375 C-29.97996109 0.94317993 -29.97996109 0.94317993 -28.96322632 0.94897461 C-26.14142077 0.96520068 -23.31976451 0.99330117 -20.49804688 1.02050781 C-18.4283924 1.03872998 -16.35876223 1.05073803 -14.2890625 1.0625 C-13.05881348 1.07410156 -11.82856445 1.08570313 -10.56103516 1.09765625 C-6.96887241 0.99914637 -3.54404159 0.57750541 0 0 Z " fill="#702C19" transform="translate(633,357)"/>
<path d="M0 0 C1.17626953 -0.01224609 2.35253906 -0.02449219 3.56445312 -0.03710938 C5.2747168 -0.04000977 5.2747168 -0.04000977 7.01953125 -0.04296875 C8.05827393 -0.04707764 9.0970166 -0.05118652 10.16723633 -0.05541992 C13.5553486 0.21708608 16.1085169 0.7285433 19.1875 2.1875 C20.91918569 5.58532825 21.43452563 8.37614391 21.41455078 12.16137695 C21.41430908 13.13530396 21.41406738 14.10923096 21.41381836 15.1126709 C21.40358643 16.12349731 21.39335449 17.13432373 21.3828125 18.17578125 C21.38079834 19.1143396 21.37878418 20.05289795 21.37670898 21.01989746 C21.36627456 24.51331496 21.338352 28.00666258 21.3125 31.5 C21.27125 39.316875 21.23 47.13375 21.1875 55.1875 C37.3575 55.1875 53.5275 55.1875 70.1875 55.1875 C70.1875 55.8475 70.1875 56.5075 70.1875 57.1875 C70.826875 57.455625 71.46625 57.72375 72.125 58 C74.1875 59.1875 74.1875 59.1875 75.1875 62.1875 C75.47248771 66.32866627 75.46508799 70.47512603 75.5 74.625 C75.52900391 75.77033203 75.55800781 76.91566406 75.58789062 78.09570312 C75.59626953 79.19720703 75.60464844 80.29871094 75.61328125 81.43359375 C75.63515503 82.94457642 75.63515503 82.94457642 75.6574707 84.48608398 C75.06338095 87.90094274 73.84020315 89.03478279 71.1875 91.1875 C68.79104256 92.38572872 67.23087973 92.34377315 64.55419922 92.39282227 C63.59335419 92.41276749 62.63250916 92.43271271 61.64254761 92.45326233 C60.60292877 92.46997482 59.56330994 92.48668732 58.4921875 92.50390625 C57.42960724 92.52468735 56.36702698 92.54546844 55.27224731 92.56687927 C51.86906562 92.63240261 48.46580511 92.69127273 45.0625 92.75 C42.75910634 92.79318257 40.45572074 92.83679677 38.15234375 92.88085938 C32.49747979 92.98808682 26.84253697 93.08984802 21.1875 93.1875 C21.19749275 94.11045113 21.19749275 94.11045113 21.20768738 95.05204773 C21.27408996 101.45969413 21.31932115 107.86724267 21.35229492 114.27514648 C21.36737543 116.6661374 21.38784277 119.05710068 21.41381836 121.44799805 C21.45023306 124.88597435 21.46723399 128.32358469 21.48046875 131.76171875 C21.49595261 132.82960129 21.51143646 133.89748383 21.52738953 134.99772644 C21.52954117 144.4996167 21.52954117 144.4996167 18.1875 148.1875 C13.2942113 151.69480919 6.48657209 150.51500935 0.75 150.5 C-0.47783203 150.51611328 -1.70566406 150.53222656 -2.97070312 150.54882812 C-4.15470703 150.54947266 -5.33871094 150.55011719 -6.55859375 150.55078125 C-8.17785767 150.55525269 -8.17785767 150.55525269 -9.82983398 150.55981445 C-13.20817188 150.13810984 -15.08876469 149.19715428 -17.8125 147.1875 C-19.05589976 144.70070048 -18.97077487 142.96952912 -19.01782227 140.18701172 C-19.0477401 138.62561966 -19.0477401 138.62561966 -19.07826233 137.03268433 C-19.09497482 135.90557037 -19.11168732 134.77845642 -19.12890625 133.6171875 C-19.14968735 132.46582306 -19.17046844 131.31445862 -19.19187927 130.12820435 C-19.25741665 126.4396986 -19.31627928 122.75111997 -19.375 119.0625 C-19.41818123 116.56639862 -19.46179538 114.0703047 -19.50585938 111.57421875 C-19.61310231 105.44539019 -19.71486089 99.31648867 -19.8125 93.1875 C-21.76470459 93.16562622 -21.76470459 93.16562622 -23.75634766 93.14331055 C-28.59841992 93.08521066 -33.44003285 93.00797809 -38.28173828 92.92504883 C-40.37476124 92.89185451 -42.46787253 92.86380555 -44.56103516 92.84106445 C-47.57492612 92.80741769 -50.58801163 92.75509607 -53.6015625 92.69921875 C-54.53304108 92.69282883 -55.46451965 92.6864389 -56.42422485 92.67985535 C-61.60037668 92.5634871 -65.35519247 92.1213558 -69.8125 89.1875 C-73.71679007 81.33421425 -72.73485137 68.57594235 -70.8125 60.1875 C-69.5625 57.8125 -69.5625 57.8125 -67.8125 56.1875 C-62.91404147 54.71233759 -57.76317553 55.06193919 -52.69921875 55.08984375 C-51.72966751 55.0912587 -50.76011627 55.09267365 -49.76118469 55.09413147 C-46.67409133 55.09971487 -43.58707133 55.11226436 -40.5 55.125 C-38.40299584 55.13001714 -36.30599054 55.13457968 -34.20898438 55.13867188 C-29.07679479 55.14967888 -23.94465982 55.16693212 -18.8125 55.1875 C-18.86871773 54.24106628 -18.86871773 54.24106628 -18.92607117 53.2755127 C-19.63809195 41.14155488 -19.91483798 29.09197781 -19.5625 16.9375 C-19.52298218 15.10880371 -19.52298218 15.10880371 -19.48266602 13.24316406 C-19.44197998 12.10588867 -19.40129395 10.96861328 -19.359375 9.796875 C-19.31055176 8.2804541 -19.31055176 8.2804541 -19.26074219 6.73339844 C-18.74768173 3.81934915 -18.17201141 2.91706506 -15.8125 1.1875 C-10.70833799 -0.51388734 -5.34292753 0.00289904 0 0 Z " fill="#252221" transform="translate(795.8125,408.8125)"/>
<path d="M0 0 C14.52 0 29.04 0 44 0 C44 17 44 17 42 21 C42 14.73 42 8.46 42 2 C28.8 2 15.6 2 2 2 C2 80.54 2 159.08 2 240 C15.86 240 29.72 240 44 240 C44 211.95 44 183.9 44 155 C49.4382622 157.17530488 49.4382622 157.17530488 52.3125 160.125 C56.84917957 164.29454943 62.01898659 166.72852524 67.5402832 169.33447266 C72.83603381 171.83603381 72.83603381 171.83603381 75 174 C70.32683761 173.44733559 66.88183392 172.17133632 62.75 169.9375 C61.71359375 169.38964844 60.6771875 168.84179688 59.609375 168.27734375 C56.43370489 166.41194288 53.63683867 164.1704688 50.77441406 161.85766602 C49.87885803 161.13571548 48.983302 160.41376495 48.06060791 159.66993713 C47.3806073 159.11885788 46.70060669 158.56777863 46 158 C46.00222061 159.02508163 46.00444122 160.05016327 46.00672913 161.10630798 C46.02696041 170.7450696 46.04197207 180.38382694 46.05181217 190.02260494 C46.05704103 194.97853922 46.06413874 199.93445642 46.07543945 204.89038086 C46.08626822 209.66898836 46.09227681 214.44757938 46.09487724 219.2261982 C46.09673151 221.05353619 46.10035216 222.88087324 46.10573006 224.70820427 C46.11294036 227.25853329 46.11399095 229.80879337 46.11352539 232.35913086 C46.11712067 233.12229614 46.12071594 233.88546143 46.12442017 234.67175293 C46.11405216 239.88594784 46.11405216 239.88594784 45 241 C30.15 241.33 15.3 241.66 0 242 C0 162.14 0 82.28 0 0 Z " fill="#D85929" transform="translate(171,398)"/>
<path d="M0 0 C13.76395759 1.98060592 27.37544606 14.89798272 35.77099609 25.33984375 C48.68388414 42.78275967 53.22081792 62.49720627 53.3125 83.875 C53.31797852 84.82028564 53.32345703 85.76557129 53.32910156 86.73950195 C53.2823447 91.18100119 53.08866525 94.04032054 51 98 C24.9188029 98.09616415 -1.15636582 97.82936416 -27.23565674 97.53643799 C-32.75474678 97.47483156 -38.27385868 97.4152486 -43.79296875 97.35546875 C-54.52866748 97.2389009 -65.26434117 97.1201825 -76 97 C-76 96.67 -76 96.34 -76 96 C-34.09 96 7.82 96 51 96 C49.72929537 64.23238437 48.01382955 38.41207703 23.90625 16.05859375 C16.64049878 9.87059562 8.37163681 5.48703114 0 1 C0 0.67 0 0.34 0 0 Z " fill="#802711" transform="translate(494,403)"/>
<path d="M0 0 C1.01725914 0.00212242 1.01725914 0.00212242 2.05506897 0.00428772 C4.19431203 0.0098288 6.3334455 0.02236972 8.47265625 0.03515625 C9.93424327 0.04017889 11.39583194 0.04474045 12.85742188 0.04882812 C16.41670151 0.0597788 19.97591816 0.0770018 23.53515625 0.09765625 C25.06812922 3.16360219 24.6564708 6.36877478 24.6328125 9.73046875 C24.63139755 10.48230438 24.6299826 11.23414001 24.62852478 12.00875854 C24.6229209 14.41343135 24.61036782 16.81801152 24.59765625 19.22265625 C24.59264175 20.85156116 24.58807875 22.48046752 24.58398438 24.109375 C24.57295022 28.10550452 24.55568304 32.10156467 24.53515625 36.09765625 C22.22515625 36.75765625 19.91515625 37.41765625 17.53515625 38.09765625 C17.20515625 37.76765625 16.87515625 37.43765625 16.53515625 37.09765625 C13.72539107 36.93748459 10.93742029 36.83815091 8.125 36.78125 C6.86194786 36.75007835 6.86194786 36.75007835 5.57337952 36.71827698 C2.87322446 36.65268813 0.17296908 36.59385349 -2.52734375 36.53515625 C-4.35352616 36.49197988 -6.17969829 36.44836589 -8.00585938 36.40429688 C-12.49208367 36.29699731 -16.97840925 36.19575659 -21.46484375 36.09765625 C-21.35547485 37.74773682 -21.35547485 37.74773682 -21.24389648 39.43115234 C-20.61637533 49.7565446 -20.39044073 60.04232835 -20.4375 70.38671875 C-20.44300873 71.63257751 -20.44851746 72.87843628 -20.45419312 74.16204834 C-20.48178957 79.32864863 -20.51692038 84.49513298 -20.56079102 89.66162109 C-20.59107276 93.48665821 -20.6087683 97.31159983 -20.625 101.13671875 C-20.63845963 102.29104401 -20.65191925 103.44536926 -20.66578674 104.63467407 C-20.68991526 112.46072787 -19.94638014 119.65304708 -17.46484375 127.09765625 C-18.12484375 127.09765625 -18.78484375 127.09765625 -19.46484375 127.09765625 C-21.95846004 121.27039233 -22.8941789 116.69071965 -22.80541992 110.38671875 C-22.805858 109.55649704 -22.80629608 108.72627533 -22.80674744 107.87089539 C-22.80467442 105.15456785 -22.78141448 102.43887459 -22.7578125 99.72265625 C-22.75221124 97.82837257 -22.74794365 95.93408452 -22.74494934 94.03979492 C-22.73354229 89.07492899 -22.704111 84.11032996 -22.6708374 79.14556885 C-22.63462522 73.17749038 -22.62095565 67.20932225 -22.60347748 61.24116516 C-22.574471 52.19314373 -22.51695496 43.14570691 -22.46484375 34.09765625 C-7.94484375 34.09765625 6.57515625 34.09765625 21.53515625 34.09765625 C21.20515625 24.19765625 20.87515625 14.29765625 20.53515625 4.09765625 C11.63575358 3.80936762 11.63575358 3.80936762 2.73608398 3.52954102 C1.61661377 3.49143311 0.49714355 3.4533252 -0.65625 3.4140625 C-1.79263916 3.37740479 -2.92902832 3.34074707 -4.09985352 3.30297852 C-7.5966592 3.08961324 -11.0047635 2.63811348 -14.46484375 2.09765625 C-14.46484375 1.76765625 -14.46484375 1.43765625 -14.46484375 1.09765625 C-9.59135552 0.30417 -4.93544191 -0.02047901 0 0 Z " fill="#42130A" transform="translate(655.46484375,400.90234375)"/>
<path d="M0 0 C-0.33 0.99 -0.66 1.98 -1 3 C-16.84 3.33 -32.68 3.66 -49 4 C-48.96519531 7.55136719 -48.93039062 11.10273438 -48.89453125 14.76171875 C-48.87113076 18.20368648 -48.85291692 21.64564534 -48.83520508 25.08764648 C-48.82012457 27.4786374 -48.79965723 29.86960068 -48.77368164 32.26049805 C-48.73726694 35.69847435 -48.72026601 39.13608469 -48.70703125 42.57421875 C-48.69154739 43.64210129 -48.67606354 44.70998383 -48.66011047 45.81022644 C-48.65795883 55.3121167 -48.65795883 55.3121167 -52 59 C-55.28067187 61.37790669 -58.33006204 61.23273526 -62.296875 61.1953125 C-64.10478516 61.18564453 -64.10478516 61.18564453 -65.94921875 61.17578125 C-67.20347656 61.15902344 -68.45773437 61.14226563 -69.75 61.125 C-71.01972656 61.11597656 -72.28945313 61.10695313 -73.59765625 61.09765625 C-76.73196093 61.07409005 -79.86588541 61.04118832 -83 61 C-83.33 60.34 -83.66 59.68 -84 59 C-83.23856689 58.97494385 -82.47713379 58.9498877 -81.69262695 58.92407227 C-78.23242624 58.80780952 -74.77247746 58.68522022 -71.3125 58.5625 C-70.11431641 58.52318359 -68.91613281 58.48386719 -67.68164062 58.44335938 C-66.52470703 58.40146484 -65.36777344 58.35957031 -64.17578125 58.31640625 C-62.58117065 58.26141968 -62.58117065 58.26141968 -60.9543457 58.20532227 C-58.19467004 58.01352925 -55.66578019 57.74127528 -53 57 C-51.74572686 54.49145371 -51.84820214 52.7311262 -51.81054688 49.92358398 C-51.78547058 48.33700233 -51.78547058 48.33700233 -51.7598877 46.71836853 C-51.74631226 45.57251785 -51.73273682 44.42666718 -51.71875 43.24609375 C-51.70034058 42.07490494 -51.68193115 40.90371613 -51.66296387 39.69703674 C-51.58404504 34.66799319 -51.5163965 29.63881179 -51.44775391 24.60961914 C-51.39617359 20.94670681 -51.33887142 17.2839152 -51.28125 13.62109375 C-51.26767456 12.47321884 -51.25409912 11.32534393 -51.2401123 10.14268494 C-51.21503601 8.56083153 -51.21503601 8.56083153 -51.18945312 6.94702148 C-51.17692505 6.0137352 -51.16439697 5.08044891 -51.15148926 4.11888123 C-51 2 -51 2 -50 1 C-48.50743474 0.87758233 -47.00928634 0.82223945 -45.51196289 0.79467773 C-44.55749771 0.77473251 -43.60303253 0.75478729 -42.61964417 0.73423767 C-41.06188515 0.70916893 -41.06188515 0.70916893 -39.47265625 0.68359375 C-37.88377846 0.6524221 -37.88377846 0.6524221 -36.26280212 0.62062073 C-32.86277009 0.55501011 -29.46265752 0.49621017 -26.0625 0.4375 C-23.77147601 0.39432195 -21.48046019 0.3507079 -19.18945312 0.30664062 C-3.03988691 0 -3.03988691 0 0 0 Z " fill="#191817" transform="translate(866,498)"/>
<path d="M0 0 C0.54269531 0.27714844 1.08539062 0.55429687 1.64453125 0.83984375 C2.71767578 1.38318359 2.71767578 1.38318359 3.8125 1.9375 C4.87404297 2.47697266 4.87404297 2.47697266 5.95703125 3.02734375 C10.02331202 4.96329769 13.3903124 5.18452399 17.85546875 5.31640625 C18.51710526 5.33718735 19.17874176 5.35796844 19.86042786 5.37937927 C21.96934852 5.44464727 24.07839135 5.50365344 26.1875 5.5625 C27.61915315 5.60570689 29.05079404 5.64932188 30.48242188 5.69335938 C33.98815154 5.80030506 37.49401786 5.90163641 41 6 C42.69439089 9.38878178 41.99513621 13.22807535 41.87890625 16.9453125 C41.84348976 18.27283035 41.84348976 18.27283035 41.80735779 19.62716675 C41.73065076 22.45993817 41.64665678 25.29244104 41.5625 28.125 C41.50928636 30.04295551 41.45654592 31.96092422 41.40429688 33.87890625 C41.27502609 38.58610827 41.1392187 43.29308212 41 48 C36.44679318 48.04979112 31.89374819 48.08590298 27.34033203 48.10986328 C25.79440547 48.11986197 24.24849754 48.13346538 22.70263672 48.15087891 C20.46837745 48.17539951 18.23437025 48.18654451 16 48.1953125 C15.31945557 48.20563507 14.63891113 48.21595764 13.93774414 48.22659302 C8.95983593 48.22773223 4.75198108 47.34113528 0 46 C0 45.67 0 45.34 0 45 C12.87 45 25.74 45 39 45 C39 32.79 39 20.58 39 8 C30.56415532 8.15713121 30.56415532 8.15713121 22.12939453 8.36035156 C14.95113262 8.42728678 8.14765133 8.09631233 2 4 C0.73486328 1.86035156 0.73486328 1.86035156 0 0 Z " fill="#49180F" transform="translate(638,528)"/>
<path d="M0 0 C2.56973293 2.3210491 4.04375487 4.7168428 5.6875 7.75 C11.01576812 16.77516526 18.87982907 22.44545715 28.9375 25.25 C44.35934256 28.25390672 57.59114335 25.77080196 71 18 C72.3274821 17.32175705 73.65863633 16.65035814 75 16 C75 15.34 75 14.68 75 14 C76.6222454 12.29006566 78.29413425 10.62652316 80 9 C80.598125 8.401875 81.19625 7.80375 81.8125 7.1875 C82.4003125 6.5996875 82.4003125 6.5996875 83 6 C96.22933034 11.05749047 108.86715924 17.7361296 121 25 C119.25 29.875 119.25 29.875 117 31 C117.33 29.35 117.66 27.7 118 26 C110.03647868 21.64150798 102.02142449 17.44272585 93.8125 13.5625 C93.09457275 13.22089844 92.37664551 12.87929688 91.63696289 12.52734375 C88.45123538 11.03761778 85.42742088 9.77593982 82 9 C81.62488281 9.87011719 81.62488281 9.87011719 81.2421875 10.7578125 C76.74946055 18.86732593 67.33111991 23.75715691 59 27 C45.91337195 30.67343945 30.3699928 30.21597003 18.34375 23.5390625 C10.71789299 18.5314164 2.53079241 11.46030844 0.34375 2.23046875 C0.2303125 1.49441406 0.116875 0.75835937 0 0 Z " fill="#9B3417" transform="translate(420,511)"/>
<path d="M0 0 C0.99 0.495 0.99 0.495 2 1 C2 16.84 2 32.68 2 49 C16.30031194 48.96045455 16.30031194 48.96045455 30.60058594 48.90991211 C32.39518169 48.90699112 34.1897781 48.90444299 35.984375 48.90234375 C36.9139502 48.89722778 37.84352539 48.89211182 38.80126953 48.88684082 C39.69410645 48.88671997 40.58694336 48.88659912 41.50683594 48.88647461 C42.66599518 48.88314369 42.66599518 48.88314369 43.84857178 48.87974548 C46.01724977 49.00096418 47.91636924 49.40260301 50 50 C49.505 50.99 49.505 50.99 49 52 C24.745 51.505 24.745 51.505 0 51 C0 34.17 0 17.34 0 0 Z " fill="#1C1A1A" transform="translate(815,415)"/>
<path d="M0 0 C1.98 0.66 3.96 1.32 6 2 C4.68 2.33 3.36 2.66 2 3 C2 13.56 2 24.12 2 35 C8.93 35 15.86 35 23 35 C23.33 35.66 23.66 36.32 24 37 C16.08 37 8.16 37 0 37 C-0.84963762 32.75181188 -1.12883981 29.30918372 -1.1328125 25.01953125 C-1.13376923 24.36546799 -1.13472595 23.71140472 -1.13571167 23.03752136 C-1.13638889 21.66344099 -1.13456674 20.28935734 -1.13037109 18.9152832 C-1.12499025 16.80868417 -1.13034479 14.70229582 -1.13671875 12.59570312 C-1.13605839 11.25781203 -1.13477811 9.91992106 -1.1328125 8.58203125 C-1.13168457 7.36749268 -1.13055664 6.1529541 -1.12939453 4.90161133 C-1 2 -1 2 0 0 Z " fill="#661D0C" transform="translate(561,400)"/>
<path d="M0 0 C5.4382622 2.17530488 5.4382622 2.17530488 8.3125 5.125 C12.84917957 9.29454943 18.01898659 11.72852524 23.5402832 14.33447266 C28.83603381 16.83603381 28.83603381 16.83603381 31 19 C26.32683761 18.44733559 22.88183392 17.17133632 18.75 14.9375 C17.19539063 14.11572266 17.19539063 14.11572266 15.609375 13.27734375 C10.80169315 10.24392544 6.43897864 6.55118291 2 3 C2 12.9 2 22.8 2 33 C1.01 33.495 1.01 33.495 0 34 C0 22.78 0 11.56 0 0 Z " fill="#CD4B21" transform="translate(215,553)"/>
<path d="M0 0 C2.08599418 3.12899128 2.77754602 5.51668391 3.75 9.125 C7.40341462 21.25811127 15.00556325 30.2619295 25.95703125 36.578125 C32.05156709 39.42589271 38.53610777 41.18754387 45 43 C45 43.33 45 43.66 45 44 C34.19794433 45.22750633 24.30303093 38.58837789 15.92578125 32.41015625 C11.86033584 29.06118453 8.91302317 25.35288891 6 21 C5.45730469 20.319375 4.91460938 19.63875 4.35546875 18.9375 C2.57916609 16.39846219 2.47061654 14.02539201 2 11 C1.34 10.67 0.68 10.34 0 10 C0 6.7 0 3.4 0 0 Z " fill="#51180E" transform="translate(592,529)"/>
<path d="M0 0 C0.33 0.66 0.66 1.32 1 2 C3.64 2 6.28 2 9 2 C9 2.66 9 3.32 9 4 C5.7 4 2.4 4 -1 4 C-1 4.99 -1 5.98 -1 7 C-1.66 7 -2.32 7 -3 7 C-3 15.58 -3 24.16 -3 33 C5.58 33 14.16 33 23 33 C23 33.33 23 33.66 23 34 C14.09 34 5.18 34 -4 34 C-4 23.44 -4 12.88 -4 2 C-2.68 2 -1.36 2 0 2 C0 1.34 0 0.68 0 0 Z " fill="#9B4325" transform="translate(567,401)"/>
<path d="M0 0 C0.66 0 1.32 0 2 0 C-3.67655955 12.24514988 -17.72486119 22.15732088 -30 27 C-30.99 26.67 -31.98 26.34 -33 26 C-31.96101563 25.443125 -30.92203125 24.88625 -29.8515625 24.3125 C-17.58636598 17.82726716 -17.58636598 17.82726716 -7 9 C-6.62852864 7.67678501 -6.28892796 6.34365528 -6 5 C-3.5 3.375 -3.5 3.375 -1 2 C-0.67 1.34 -0.34 0.68 0 0 Z " fill="#792510" transform="translate(535,542)"/>
<path d="M0 0 C4.74401312 0.65657881 8.66373458 2.51611204 12.9375 4.5625 C13.67734131 4.913125 14.41718262 5.26375 15.17944336 5.625 C22.32713572 9.06384696 29.18926716 12.94162354 36 17 C34.25 21.875 34.25 21.875 32 23 C32.33 21.35 32.66 19.7 33 18 C24.26023009 13.21666159 15.4674938 8.69347602 6.37329102 4.61523438 C1.10562408 2.21124815 1.10562408 2.21124815 0 0 Z " fill="#812812" transform="translate(505,519)"/>
<path d="M0 0 C12.91081158 1.85783992 25.16957568 13.1089377 33 23 C32.01 23 31.02 23 30 23 C28.61930546 21.37235196 27.29147445 19.69930848 26 18 C18.37939 10.73383698 9.2017126 5.93193529 0 1 C0 0.67 0 0.34 0 0 Z " fill="#8F3117" transform="translate(494,403)"/>
<path d="M0 0 C0.33 0 0.66 0 1 0 C1.91127985 11.22803205 2.00198226 22.24875323 1.5625 33.5 C1.50905592 35.01690224 1.45631876 36.53382957 1.40429688 38.05078125 C1.27762785 41.70084449 1.14157617 45.35048083 1 49 C0.67 49 0.34 49 0 49 C-0.1687611 43.46838611 -0.32918847 37.93661362 -0.48217773 32.40454102 C-0.53527235 30.52589553 -0.5905723 28.64731093 -0.64819336 26.76879883 C-0.73102157 24.05563486 -0.80569582 21.3423448 -0.87890625 18.62890625 C-0.90594131 17.80040665 -0.93297638 16.97190704 -0.96083069 16.11830139 C-1.09828056 10.64562002 -0.70703027 5.43008771 0 0 Z " fill="#050505" transform="translate(777,504)"/>
<path d="M0 0 C1.54320549 3.95568495 0.38015123 6.75325011 -0.875 10.6875 C-2.15970604 14.90679141 -3.25313029 18.85192555 -3.625 23.25 C-4 27 -4 27 -6 29 C-7.24309384 22.41160266 -6.94229912 16.46297193 -5 10 C-4.34 9.67 -3.68 9.34 -3 9 C-2.09274566 6.88672575 -2.09274566 6.88672575 -1.375 4.4375 C-0.98441406 3.19806641 -0.98441406 3.19806641 -0.5859375 1.93359375 C-0.39257812 1.29550781 -0.19921875 0.65742188 0 0 Z " fill="#DB612E" transform="translate(382,450)"/>
<path d="M0 0 C1.32547852 0.07831055 1.32547852 0.07831055 2.67773438 0.15820312 C4.84800408 0.28724619 7.01780693 0.42409956 9.1875 0.5625 C9.1875 1.2225 9.1875 1.8825 9.1875 2.5625 C1.2675 2.5625 -6.6525 2.5625 -14.8125 2.5625 C-14.8125 1.9025 -14.8125 1.2425 -14.8125 0.5625 C-9.85765817 -0.82239368 -5.06660852 -0.32870615 0 0 Z " fill="#110E0D" transform="translate(798.8125,409.4375)"/>
<path d="M0 0 C0.99 0.33 1.98 0.66 3 1 C4.66621616 1.03874921 6.33394172 1.0450286 8 1 C4.25 3 4.25 3 2 3 C1.566875 4.7015625 1.566875 4.7015625 1.125 6.4375 C0.75375 7.613125 0.3825 8.78875 0 10 C-0.99 10.495 -0.99 10.495 -2 11 C-3.35384615 4.6 -3.35384615 4.6 -1.5625 1.5625 C-1.046875 1.046875 -0.53125 0.53125 0 0 Z " fill="#3D2621" transform="translate(728,465)"/>
<path d="M0 0 C2.97 0 5.94 0 9 0 C9 0.66 9 1.32 9 2 C11.64 2.33 14.28 2.66 17 3 C17 3.33 17 3.66 17 4 C11.72 4 6.44 4 1 4 C0.67 2.68 0.34 1.36 0 0 Z " fill="#7C331E" transform="translate(591,358)"/>
<path d="M0 0 C0 3.187947 -0.55950301 4.44496699 -1.9375 7.25 C-3.79200063 11.25388652 -4.62711416 14.61859134 -5 19 C-5.99 18.67 -6.98 18.34 -8 18 C-4.14578588 5.33029613 -4.14578588 5.33029613 0 0 Z " fill="#D25C2D" transform="translate(425,449)"/>
<path d="M0 0 C0.66 0.33 1.32 0.66 2 1 C-2.29 5.29 -6.58 9.58 -11 14 C-11 13.01 -11 12.02 -11 11 C-10 10 -9 9 -8 8 C-7.87625 7.319375 -7.7525 6.63875 -7.625 5.9375 C-7.41875 5.298125 -7.2125 4.65875 -7 4 C-4.5625 2.875 -4.5625 2.875 -2 2 C-1.34 1.34 -0.68 0.68 0 0 Z " fill="#DE6733" transform="translate(407,416)"/>
<path d="M0 0 C0.33 0.66 0.66 1.32 1 2 C3.64 2 6.28 2 9 2 C9 2.66 9 3.32 9 4 C5.7 4 2.4 4 -1 4 C-1 4.99 -1 5.98 -1 7 C-1.99 7 -2.98 7 -4 7 C-4 5.35 -4 3.7 -4 2 C-2.68 2 -1.36 2 0 2 C0 1.34 0 0.68 0 0 Z " fill="#913A1F" transform="translate(567,401)"/>
<path d="M0 0 C5.47932789 1.54545146 10.11429181 4.15543212 15 7 C13.25 11.875 13.25 11.875 11 13 C11.33 11.35 11.66 9.7 12 8 C11.13375 7.50628906 10.2675 7.01257813 9.375 6.50390625 C8.26125 5.86324219 7.1475 5.22257813 6 4.5625 C4.88625 3.92441406 3.7725 3.28632812 2.625 2.62890625 C1.75875 2.09136719 0.8925 1.55382812 0 1 C0 0.67 0 0.34 0 0 Z " fill="#762410" transform="translate(526,529)"/>
<path d="M0 0 C0.99 0 1.98 0 3 0 C1.06706695 4.01455327 -1.24485076 7.76155525 -3.5625 11.5625 C-4.80766217 13.67386195 -5.93721027 15.79266748 -7 18 C-7.33 17.34 -7.66 16.68 -8 16 C-6.85546875 13.3203125 -6.85546875 13.3203125 -5.1875 10.125 C-4.64480469 9.07570313 -4.10210937 8.02640625 -3.54296875 6.9453125 C-3.03378906 5.97335937 -2.52460938 5.00140625 -2 4 C-1.32984295 2.66841758 -0.66149875 1.3359048 0 0 Z " fill="#A83817" transform="translate(428,445)"/>
<path d="M0 0 C0.515625 0.66 1.03125 1.32 1.5625 2 C4.61208585 5.75333644 7.7986681 9.37602035 11 13 C10.34 13.66 9.68 14.32 9 15 C0 4.89320388 0 4.89320388 0 0 Z " fill="#54190E" transform="translate(597,545)"/>
<path d="M0 0 C0 0.33 0 0.66 0 1 C-6.73385072 2.68346268 -13.24894632 2.12517561 -20 1 C-20 0.67 -20 0.34 -20 0 C-13.26188501 -1.41030314 -6.80977041 -0.66561666 0 0 Z " fill="#3D0C05" transform="translate(661,402)"/>
<path d="M0 0 C0.66 0 1.32 0 2 0 C0.63629701 2.99220268 -0.94908083 5.29026529 -3.125 7.75 C-3.93324219 8.67039062 -3.93324219 8.67039062 -4.7578125 9.609375 C-5.16773438 10.06828125 -5.57765625 10.5271875 -6 11 C-7.125 7.25 -7.125 7.25 -6 5 C-4.33333333 4 -2.66666667 3 -1 2 C-0.67 1.34 -0.34 0.68 0 0 Z " fill="#822E17" transform="translate(535,542)"/>
<path d="M0 0 C1.98 0.66 3.96 1.32 6 2 C4.68 2.33 3.36 2.66 2 3 C2 4.65 2 6.3 2 8 C1.01 8 0.02 8 -1 8 C-1.125 2.25 -1.125 2.25 0 0 Z " fill="#7D2D19" transform="translate(561,400)"/>
<path d="M0 0 C0.33 0 0.66 0 1 0 C1.07347656 1.01320313 1.07347656 1.01320313 1.1484375 2.046875 C1.22320313 2.93890625 1.29796875 3.8309375 1.375 4.75 C1.44460938 5.63171875 1.51421875 6.5134375 1.5859375 7.421875 C1.99850055 9.99066382 2.71160957 11.75841015 4 14 C2.0625 13.1875 2.0625 13.1875 0 12 C-1.03159626 8.90521121 -0.97482862 7.47368607 -0.5625 4.3125 C-0.46066406 3.50425781 -0.35882812 2.69601562 -0.25390625 1.86328125 C-0.17011719 1.24839844 -0.08632813 0.63351562 0 0 Z " fill="#181616" transform="translate(778,544)"/>
<path d="M0 0 C0.99 0 1.98 0 3 0 C3 0.99 3 1.98 3 3 C4.65 3.33 6.3 3.66 8 4 C8 4.33 8 4.66 8 5 C5.69 5 3.38 5 1 5 C0.67 3.35 0.34 1.7 0 0 Z " fill="#7A2B17" transform="translate(560,432)"/>
<path d="M0 0 C2.64 0 5.28 0 8 0 C7.67 0.66 7.34 1.32 7 2 C6.34 2 5.68 2 5 2 C4.67 2.99 4.34 3.98 4 5 C4 4.01 4 3.02 4 2 C2.68 1.67 1.36 1.34 0 1 C0 0.67 0 0.34 0 0 Z " fill="#6C2412" transform="translate(584,435)"/>
<path d="M0 0 C1.65 0 3.3 0 5 0 C5 0.33 5 0.66 5 1 C3.35 1 1.7 1 0 1 C0 0.67 0 0.34 0 0 Z " fill="#C25830" transform="translate(459,536)"/>
<path d="M0 0 C0.99 0.33 1.98 0.66 3 1 C2.01 1.33 1.02 1.66 0 2 C0 1.34 0 0.68 0 0 Z " fill="#733625" transform="translate(676,438)"/>
<path d="M0 0 C0.99 0.495 0.99 0.495 2 1 C1.01 1.495 1.01 1.495 0 2 C0 1.34 0 0.68 0 0 Z " fill="#DD6D3B" transform="translate(384,536)"/>
<path d="M0 0 C0.66 0 1.32 0 2 0 C1.67 0.66 1.34 1.32 1 2 C0.67 1.34 0.34 0.68 0 0 Z " fill="#C65A32" transform="translate(474,437)"/>
<path d="M0 0 C3 1 3 1 3 1 Z " fill="#453C3B" transform="translate(784,408)"/>
<path d="M0 0 C3 1 3 1 3 1 Z " fill="#773C2A" transform="translate(675,400)"/>
<path d="M0 0 C3 1 3 1 3 1 Z " fill="#793522" transform="translate(637,400)"/>
<path d="" fill="#CC663B" transform="translate(0,0)"/>
<path d="" fill="#8F432C" transform="translate(0,0)"/>
<path d="" fill="#E16C3B" transform="translate(0,0)"/>
<path d="M0 0 C2 1 2 1 2 1 Z " fill="#32302F" transform="translate(851,502)"/>
<path d="M0 0 C2 1 2 1 2 1 Z " fill="#31302F" transform="translate(848,502)"/>
<path d="M0 0 C2 1 2 1 2 1 Z " fill="#302D2B" transform="translate(827,502)"/>
<path d="" fill="#91412A" transform="translate(0,0)"/>
<path d="" fill="#914128" transform="translate(0,0)"/>
<path d="M0 0 C2 1 2 1 2 1 Z " fill="#74321E" transform="translate(656,438)"/>
<path d="M0 0 C2 1 2 1 2 1 Z " fill="#78301F" transform="translate(640,438)"/>
<path d="M0 0 C2 1 2 1 2 1 Z " fill="#7B321F" transform="translate(636,438)"/>
<path d="M0 0 C2 1 2 1 2 1 Z " fill="#3E3736" transform="translate(805,408)"/>
<path d="M0 0 C2 1 2 1 2 1 Z " fill="#7A3C2A" transform="translate(672,400)"/>
<path d="M0 0 C2 1 2 1 2 1 Z " fill="#793523" transform="translate(645,400)"/>
<path d="M0 0 C2 1 2 1 2 1 Z " fill="#EC8651" transform="translate(172,396)"/>
<path d="" fill="#928D8A" transform="translate(0,0)"/>
<path d="" fill="#E7824D" transform="translate(0,0)"/>
<path d="" fill="#CA6438" transform="translate(0,0)"/>
<path d="" fill="#ED7842" transform="translate(0,0)"/>
<path d="" fill="#7C3C2A" transform="translate(0,0)"/>
<path d="" fill="#CB673A" transform="translate(0,0)"/>
<path d="" fill="#D0683B" transform="translate(0,0)"/>
<path d="" fill="#813C2A" transform="translate(0,0)"/>
<path d="" fill="#CA633A" transform="translate(0,0)"/>
<path d="" fill="#EF7844" transform="translate(0,0)"/>
<path d="" fill="#803D2C" transform="translate(0,0)"/>
<path d="" fill="#CD6539" transform="translate(0,0)"/>
<path d="" fill="#AF5434" transform="translate(0,0)"/>
<path d="" fill="#CF673D" transform="translate(0,0)"/>
<path d="" fill="#EF7A40" transform="translate(0,0)"/>
<path d="" fill="#8B412B" transform="translate(0,0)"/>
<path d="" fill="#8A422C" transform="translate(0,0)"/>
<path d="" fill="#8E432C" transform="translate(0,0)"/>
<path d="" fill="#C45B32" transform="translate(0,0)"/>
<path d="" fill="#6E362A" transform="translate(0,0)"/>
<path d="" fill="#753523" transform="translate(0,0)"/>
<path d="" fill="#71382A" transform="translate(0,0)"/>
<path d="" fill="#EA743F" transform="translate(0,0)"/>
<path d="" fill="#AD5231" transform="translate(0,0)"/>
<path d="" fill="#DE6A3A" transform="translate(0,0)"/>
<path d="" fill="#DD6C3B" transform="translate(0,0)"/>
<path d="" fill="#B15434" transform="translate(0,0)"/>
<path d="" fill="#E5703B" transform="translate(0,0)"/>
<path d="" fill="#EC7940" transform="translate(0,0)"/>
<path d="" fill="#353431" transform="translate(0,0)"/>
<path d="" fill="#33302E" transform="translate(0,0)"/>
<path d="" fill="#2F2D2C" transform="translate(0,0)"/>
<path d="" fill="#2E2D2B" transform="translate(0,0)"/>
<path d="" fill="#2F2E2E" transform="translate(0,0)"/>
<path d="" fill="#3F302B" transform="translate(0,0)"/>
<path d="" fill="#45322B" transform="translate(0,0)"/>
<path d="" fill="#46302A" transform="translate(0,0)"/>
<path d="" fill="#363533" transform="translate(0,0)"/>
<path d="" fill="#E16F3D" transform="translate(0,0)"/>
<path d="" fill="#5A372C" transform="translate(0,0)"/>
<path d="" fill="#91412B" transform="translate(0,0)"/>
<path d="" fill="#E8733E" transform="translate(0,0)"/>
<path d="" fill="#914129" transform="translate(0,0)"/>
<path d="" fill="#AA4D2F" transform="translate(0,0)"/>
<path d="" fill="#623C33" transform="translate(0,0)"/>
<path d="" fill="#633E34" transform="translate(0,0)"/>
<path d="" fill="#D96939" transform="translate(0,0)"/>
<path d="" fill="#48322D" transform="translate(0,0)"/>
<path d="" fill="#D96335" transform="translate(0,0)"/>
<path d="" fill="#914128" transform="translate(0,0)"/>
<path d="" fill="#BF5B32" transform="translate(0,0)"/>
<path d="" fill="#F17C42" transform="translate(0,0)"/>
<path d="" fill="#C25931" transform="translate(0,0)"/>
<path d="" fill="#BF5831" transform="translate(0,0)"/>
<path d="" fill="#C75E33" transform="translate(0,0)"/>
<path d="" fill="#743322" transform="translate(0,0)"/>
<path d="" fill="#74321F" transform="translate(0,0)"/>
<path d="" fill="#76321F" transform="translate(0,0)"/>
<path d="" fill="#753121" transform="translate(0,0)"/>
<path d="" fill="#CB6033" transform="translate(0,0)"/>
<path d="" fill="#E97C46" transform="translate(0,0)"/>
<path d="" fill="#E17341" transform="translate(0,0)"/>
<path d="" fill="#E97E46" transform="translate(0,0)"/>
<path d="" fill="#4B3D39" transform="translate(0,0)"/>
<path d="" fill="#423A37" transform="translate(0,0)"/>
<path d="" fill="#DA7040" transform="translate(0,0)"/>
<path d="" fill="#C2603A" transform="translate(0,0)"/>
<path d="" fill="#EB8049" transform="translate(0,0)"/>
<path d="" fill="#793628" transform="translate(0,0)"/>
<path d="" fill="#793625" transform="translate(0,0)"/>
<path d="" fill="#7A3626" transform="translate(0,0)"/>
<path d="" fill="#793625" transform="translate(0,0)"/>
<path d="" fill="#95462C" transform="translate(0,0)"/>
<path d="" fill="#C6613C" transform="translate(0,0)"/>
<path d="" fill="#EF854D" transform="translate(0,0)"/>
<path d="" fill="#F08D55" transform="translate(0,0)"/>
<path d="" fill="#EE824A" transform="translate(0,0)"/>
<path d="" fill="#EF844D" transform="translate(0,0)"/>
<path d="" fill="#EE844D" transform="translate(0,0)"/>
<path d="" fill="#EF854E" transform="translate(0,0)"/>
<path d="" fill="#CC663D" transform="translate(0,0)"/>
<path d="" fill="#EF844B" transform="translate(0,0)"/>
</svg>
